# xmcd
#
# Track frame offsets:
#	150
#	14500
#	23988
#	43041
#	61848
#	80272
#	96145
#	110139
#	127508
#	143551
#	151010
#	165139
#	182767
#	202292
#	214770
#	224152
#	232841
#	242144
#	251333
#	261795
#	273017
#
# Disc length: 3837 seconds
#
# Revision: 1
# Processed by: cddbd v1.5.2PL0 Copyright (c) Steve Scherf et al.
# Submitted via: audiograbber 1.83.01
#
DISCID=180efb15
DTITLE=IRAH CALDEIRA - AO VIVO IV
DYEAR=1900
DGENRE=FORRÓ
TTITLE0=FORRÓ DO PIC PLIC PLÁ
TTITLE1=SANFONINHA CHORADEIRA
TTITLE2=A DANÇA DO DIA A DIA
TTITLE3=ASAS DA ILUSÃO-ME DÁ MEU CORAÇÃO
TTITLE4=SEM SEGREDO
TTITLE5=FORRÓ CALANGUEADO
TTITLE6=MSN
TTITLE7=FLOR DO MAMULENGO
TTITLE8=ANJO QUERUBIM
TTITLE9=PRIMEIRO EU
TTITLE10=NODA DE CAJU
TTITLE11=OFERENDAR
TTITLE12=A SORTE É CEGA
TTITLE13=TUM, TUM, TUM
TTITLE14=CHAP CHAP
TTITLE15=CHILILIQUE
TTITLE16=CHINELO DE ROSINHA
TTITLE17=FORRÓ PESSADO
TTITLE18=NEM SE DESPEDIU DE MIM
TTITLE19=QUER IR MAIS EU
TTITLE20=QUERO TER VOCÊ
EXTD=
EXTT0=
EXTT1=
EXTT2=
EXTT3=
EXTT4=
EXTT5=
EXTT6=
EXTT7=
EXTT8=
EXTT9=
EXTT10=
EXTT11=
EXTT12=
EXTT13=
EXTT14=
EXTT15=
EXTT16=
EXTT17=
EXTT18=
EXTT19=
EXTT20=
PLAYORDER=
